<?xml version="1.0" encoding="utf-8"?>
<!-- Generator: Adobe Illustrator 16.0.0, SVG Export Plug-In . SVG Version: 6.00 Build 0)  -->
<!DOCTYPE svg PUBLIC "-//W3C//DTD SVG 1.1//EN" "http://www.w3.org/Graphics/SVG/1.1/DTD/svg11.dtd">
<svg version="1.1" id="Layer_1" xmlns="http://www.w3.org/2000/svg" xmlns:xlink="http://www.w3.org/1999/xlink" x="0px" y="0px"
	 width="149.334px" height="40px" viewBox="0 0 149.334 40" enable-background="new 0 0 149.334 40" xml:space="preserve">
<path id="TD_logo_3_1_" fill="#FFFFFF" d="M19.19,3.027c-2.82,0-5.728,1.113-8.364,3.002C14.322,2.909,18.394,1,22.309,1
	c5.555,0,9.37,3.842,10.407,9.539c0.294,1.615,0.364,3.379,0.188,5.247c-0.124,1.305-0.367,2.661-0.739,4.053
	c-2.788,10.404-11.72,18.84-19.95,18.84c-0.918,0-1.786-0.105-2.604-0.306c-1.848-0.453-3.43-1.396-4.691-2.724
	c-1.802-1.898-2.951-4.582-3.291-7.753c0.678,2.631,2.103,4.728,4.111,5.993c1.358,0.855,2.982,1.331,4.824,1.331
	c0.174,0,0.349-0.006,0.523-0.014c7.028-0.339,14.463-7.408,16.788-16.083c0.306-1.146,0.508-2.262,0.613-3.338
	c0.185-1.893,0.068-3.664-0.315-5.247C27.08,6.025,23.819,3.027,19.19,3.027z M6.79,10.539c-1.159,1.615-2.174,3.379-2.999,5.247
	h10.39L5.739,33.89c1.358,0.855,2.982,1.331,4.824,1.331c0.174,0,0.349-0.006,0.523-0.014l9.057-19.421h8.344
	c0.185-1.893,0.068-3.664-0.315-5.247H6.79z M52.729,11.939h-3.297v8.97h-2.219v-8.97H43.96v-1.797h8.769V11.939z M59.184,18.69
	h-3.889l-0.74,2.219h-2.358l4.008-10.767h2.055l4.03,10.767h-2.358L59.184,18.69z M55.894,16.894h2.691l-1.353-4.03L55.894,16.894z
	 M72.049,20.909h-2.218l-4.318-7.084v7.084h-2.217V10.143h2.217l4.326,7.099v-7.099h2.21V20.909z M78.683,20.909V10.143h3.313
	c0.947,0,1.793,0.214,2.541,0.64c0.746,0.426,1.33,1.033,1.748,1.819c0.419,0.786,0.629,1.679,0.629,2.68v0.496
	c0,1-0.207,1.89-0.619,2.669c-0.411,0.779-0.991,1.382-1.741,1.812c-0.75,0.428-1.595,0.646-2.536,0.651H78.683z M80.901,11.939
	v7.188h1.072c0.868,0,1.531-0.284,1.989-0.851c0.458-0.566,0.693-1.377,0.703-2.432v-0.569c0-1.095-0.227-1.923-0.68-2.488
	c-0.454-0.564-1.117-0.847-1.989-0.847H80.901z M94.447,18.69h-3.89l-0.738,2.219H87.46l4.008-10.767h2.056l4.029,10.767h-2.358
	L94.447,18.69z M91.157,16.894h2.691l-1.354-4.03L91.157,16.894z M107.313,20.909h-2.219l-4.317-7.084v7.084h-2.22V10.143h2.22
	l4.324,7.099v-7.099h2.212V20.909z M109.22,19.859c0-0.34,0.116-0.616,0.345-0.829c0.229-0.212,0.517-0.317,0.861-0.317
	c0.351,0,0.64,0.105,0.868,0.317c0.23,0.212,0.345,0.488,0.345,0.829c0,0.335-0.113,0.607-0.341,0.817
	c-0.226,0.21-0.517,0.314-0.872,0.314c-0.35,0-0.638-0.104-0.865-0.314C109.335,20.466,109.22,20.194,109.22,19.859z
	 M114.063,23.607l-1.116-0.584l0.266-0.48c0.33-0.602,0.501-1.201,0.511-1.797v-1.657h1.805l-0.008,1.479
	c-0.006,0.547-0.143,1.1-0.415,1.656C114.835,22.782,114.488,23.243,114.063,23.607z M125.458,10.143h2.218v7.453
	c0,0.686-0.15,1.291-0.454,1.815c-0.303,0.525-0.731,0.931-1.283,1.216c-0.552,0.287-1.176,0.43-1.87,0.43
	c-1.139,0-2.026-0.29-2.663-0.869c-0.635-0.579-0.952-1.398-0.952-2.458h2.232c0,0.528,0.11,0.917,0.333,1.168
	c0.222,0.251,0.571,0.377,1.05,0.377c0.424,0,0.762-0.146,1.013-0.437s0.377-0.705,0.377-1.242V10.143z M135.159,18.084
	c0-0.419-0.147-0.741-0.444-0.965c-0.296-0.224-0.827-0.461-1.598-0.71c-0.768-0.249-1.376-0.494-1.826-0.735
	c-1.222-0.661-1.833-1.55-1.833-2.669c0-0.582,0.164-1.101,0.491-1.556c0.328-0.456,0.8-0.813,1.413-1.069
	c0.612-0.256,1.302-0.384,2.066-0.384c0.769,0,1.455,0.139,2.055,0.418c0.602,0.278,1.069,0.671,1.401,1.179
	c0.334,0.507,0.499,1.084,0.499,1.729h-2.218c0-0.493-0.154-0.875-0.466-1.149c-0.311-0.273-0.747-0.41-1.308-0.41
	c-0.543,0-0.966,0.114-1.266,0.344c-0.3,0.229-0.451,0.531-0.451,0.905c0,0.35,0.177,0.643,0.529,0.88
	c0.353,0.236,0.871,0.458,1.556,0.665c1.263,0.38,2.182,0.851,2.758,1.413c0.577,0.563,0.865,1.262,0.865,2.1
	c0,0.932-0.353,1.662-1.057,2.192c-0.705,0.529-1.653,0.795-2.846,0.795c-0.829,0-1.583-0.151-2.265-0.454
	c-0.68-0.304-1.199-0.719-1.556-1.247c-0.357-0.527-0.535-1.139-0.535-1.833h2.226c0,1.188,0.71,1.782,2.13,1.782
	c0.527,0,0.938-0.107,1.233-0.322C135.012,18.769,135.159,18.469,135.159,18.084z M147.337,17.323
	c-0.083,1.158-0.512,2.07-1.282,2.736c-0.773,0.665-1.789,0.998-3.052,0.998c-1.379,0-2.464-0.465-3.256-1.394
	c-0.791-0.93-1.187-2.205-1.187-3.827v-0.658c0-1.035,0.182-1.947,0.548-2.736c0.363-0.788,0.886-1.394,1.563-1.815
	c0.678-0.421,1.466-0.632,2.362-0.632c1.242,0,2.243,0.333,3.002,0.998c0.76,0.666,1.198,1.6,1.316,2.803h-2.219
	c-0.053-0.695-0.248-1.199-0.58-1.513c-0.333-0.313-0.839-0.469-1.52-0.469c-0.739,0-1.293,0.265-1.66,0.795
	c-0.367,0.529-0.556,1.351-0.565,2.465v0.813c0,1.164,0.177,2.014,0.529,2.551c0.353,0.538,0.907,0.806,1.666,0.806
	c0.686,0,1.198-0.156,1.534-0.469c0.34-0.313,0.532-0.797,0.582-1.453H147.337z M59.451,32.06l0.855-3.396h0.76l-1.294,4.443h-0.616
	l-1.081-3.368l-1.052,3.368h-0.616l-1.29-4.443h0.756l0.875,3.326l1.036-3.326h0.612L59.451,32.06z M65.773,32.06l0.854-3.396h0.76
	l-1.293,4.443h-0.616l-1.081-3.368l-1.051,3.368h-0.617l-1.29-4.443h0.756l0.875,3.326l1.036-3.326h0.612L65.773,32.06z
	 M72.095,32.06l0.854-3.396h0.76l-1.293,4.443h-0.616l-1.08-3.368l-1.052,3.368h-0.617l-1.289-4.443h0.755l0.875,3.326l1.035-3.326
	h0.612L72.095,32.06z M73.989,32.708c0-0.131,0.039-0.24,0.117-0.328c0.078-0.088,0.194-0.131,0.351-0.131
	c0.156,0,0.275,0.043,0.355,0.131c0.082,0.088,0.122,0.197,0.122,0.328c0,0.126-0.04,0.231-0.122,0.316
	c-0.08,0.085-0.199,0.127-0.355,0.127c-0.157,0-0.273-0.042-0.351-0.127C74.027,32.939,73.989,32.834,73.989,32.708z M77.218,27.586
	v1.077h0.829v0.587h-0.829v2.759c0,0.179,0.036,0.313,0.11,0.402c0.074,0.089,0.2,0.133,0.378,0.133
	c0.088,0,0.208-0.017,0.361-0.049v0.612c-0.2,0.055-0.395,0.081-0.583,0.081c-0.339,0-0.596-0.102-0.769-0.308
	c-0.172-0.205-0.259-0.496-0.259-0.875V29.25h-0.809v-0.587h0.809v-1.077H77.218z M81.678,33.106
	c-0.043-0.087-0.079-0.242-0.106-0.468c-0.354,0.367-0.775,0.55-1.265,0.55c-0.438,0-0.798-0.123-1.079-0.371
	c-0.28-0.248-0.42-0.562-0.42-0.942c0-0.463,0.176-0.822,0.528-1.078c0.351-0.257,0.847-0.385,1.484-0.385h0.74v-0.349
	c0-0.267-0.08-0.478-0.238-0.635c-0.159-0.158-0.394-0.236-0.703-0.236c-0.271,0-0.499,0.067-0.682,0.205
	c-0.184,0.138-0.275,0.303-0.275,0.497h-0.764c0-0.222,0.079-0.436,0.236-0.643c0.158-0.207,0.371-0.371,0.641-0.491
	c0.27-0.12,0.566-0.181,0.89-0.181c0.511,0,0.913,0.128,1.203,0.384c0.29,0.257,0.441,0.609,0.452,1.059v2.045
	c0,0.408,0.052,0.733,0.155,0.974v0.065H81.678z M80.417,32.527c0.239,0,0.464-0.062,0.678-0.185s0.369-0.283,0.464-0.48V30.95
	h-0.596c-0.932,0-1.396,0.273-1.396,0.818c0,0.237,0.08,0.424,0.238,0.558C79.965,32.461,80.168,32.527,80.417,32.527z
	 M84.229,28.663l0.024,0.558c0.339-0.427,0.783-0.641,1.331-0.641c0.939,0,1.413,0.529,1.421,1.59v2.937h-0.76v-2.941
	c-0.003-0.32-0.076-0.557-0.22-0.71s-0.367-0.229-0.671-0.229c-0.247,0-0.463,0.064-0.649,0.197
	c-0.187,0.131-0.331,0.303-0.436,0.517v3.167h-0.759v-4.443H84.229z M87.967,30.848c0-0.683,0.162-1.23,0.485-1.646
	c0.323-0.414,0.747-0.622,1.27-0.622c0.521,0,0.932,0.179,1.236,0.535v-2.318h0.76v6.31H91.02l-0.037-0.476
	c-0.305,0.372-0.728,0.558-1.269,0.558c-0.515,0-0.935-0.21-1.26-0.632c-0.324-0.422-0.487-0.972-0.487-1.651V30.848z
	 M88.728,30.934c0,0.504,0.104,0.898,0.312,1.184s0.496,0.427,0.863,0.427c0.482,0,0.833-0.217,1.056-0.648v-2.042
	c-0.228-0.419-0.577-0.628-1.047-0.628c-0.373,0-0.664,0.144-0.872,0.431C88.831,29.944,88.728,30.37,88.728,30.934z M95.642,33.106
	c-0.045-0.087-0.081-0.242-0.107-0.468c-0.354,0.367-0.775,0.55-1.266,0.55c-0.438,0-0.798-0.123-1.078-0.371
	c-0.281-0.248-0.421-0.562-0.421-0.942c0-0.463,0.176-0.822,0.527-1.078c0.353-0.257,0.847-0.385,1.484-0.385h0.74v-0.349
	c0-0.267-0.079-0.478-0.238-0.635c-0.158-0.158-0.393-0.236-0.702-0.236c-0.271,0-0.498,0.067-0.683,0.205
	c-0.183,0.138-0.274,0.303-0.274,0.497h-0.765c0-0.222,0.079-0.436,0.237-0.643c0.157-0.207,0.37-0.371,0.641-0.491
	c0.269-0.12,0.565-0.181,0.89-0.181c0.511,0,0.912,0.128,1.203,0.384c0.289,0.257,0.439,0.609,0.451,1.059v2.045
	c0,0.408,0.052,0.733,0.157,0.974v0.065H95.642z M94.381,32.527c0.236,0,0.463-0.062,0.677-0.185s0.368-0.283,0.464-0.48V30.95
	h-0.596c-0.932,0-1.396,0.273-1.396,0.818c0,0.237,0.079,0.424,0.237,0.558C93.927,32.461,94.13,32.527,94.381,32.527z
	 M98.192,28.663l0.023,0.558c0.34-0.427,0.783-0.641,1.331-0.641c0.939,0,1.413,0.529,1.422,1.59v2.937h-0.761v-2.941
	c-0.003-0.32-0.075-0.557-0.22-0.71c-0.144-0.153-0.367-0.229-0.671-0.229c-0.247,0-0.463,0.064-0.649,0.197
	c-0.186,0.131-0.331,0.303-0.436,0.517v3.167h-0.759v-4.443H98.192z M102.131,32.708c0-0.131,0.039-0.24,0.117-0.328
	s0.195-0.131,0.352-0.131s0.274,0.043,0.355,0.131s0.121,0.197,0.121,0.328c0,0.126-0.04,0.231-0.121,0.316
	s-0.199,0.127-0.355,0.127s-0.273-0.042-0.352-0.127S102.131,32.834,102.131,32.708z M106.111,32.569
	c0.271,0,0.507-0.082,0.71-0.247c0.204-0.164,0.315-0.369,0.337-0.616h0.72c-0.013,0.255-0.102,0.498-0.264,0.728
	c-0.161,0.229-0.377,0.413-0.647,0.55c-0.269,0.138-0.555,0.205-0.855,0.205c-0.605,0-1.086-0.201-1.443-0.605
	c-0.357-0.403-0.537-0.956-0.537-1.657v-0.127c0-0.433,0.08-0.818,0.238-1.155c0.159-0.336,0.387-0.598,0.685-0.784
	c0.297-0.186,0.648-0.279,1.054-0.279c0.499,0,0.912,0.149,1.242,0.448c0.331,0.298,0.506,0.686,0.528,1.162h-0.72
	c-0.021-0.287-0.131-0.523-0.326-0.709c-0.196-0.185-0.437-0.276-0.725-0.276c-0.387,0-0.686,0.139-0.898,0.416
	c-0.211,0.278-0.317,0.68-0.317,1.206v0.144c0,0.513,0.105,0.907,0.316,1.184C105.418,32.431,105.72,32.569,106.111,32.569z
	 M108.531,30.844c0-0.436,0.086-0.827,0.257-1.175c0.171-0.349,0.409-0.616,0.715-0.805c0.306-0.189,0.654-0.284,1.044-0.284
	c0.605,0,1.096,0.21,1.47,0.628c0.373,0.42,0.561,0.978,0.561,1.672v0.054c0,0.433-0.082,0.821-0.248,1.165
	s-0.403,0.611-0.711,0.803c-0.308,0.192-0.662,0.287-1.062,0.287c-0.603,0-1.092-0.209-1.466-0.628
	c-0.373-0.419-0.56-0.974-0.56-1.663V30.844z M109.294,30.934c0,0.493,0.114,0.89,0.345,1.188c0.229,0.299,0.534,0.448,0.918,0.448
	c0.386,0,0.691-0.151,0.919-0.454c0.228-0.304,0.342-0.727,0.342-1.271c0-0.487-0.115-0.883-0.347-1.186s-0.539-0.453-0.924-0.453
	c-0.374,0-0.677,0.148-0.907,0.447C109.41,29.95,109.294,30.379,109.294,30.934z M114.244,28.663l0.021,0.492
	c0.326-0.384,0.766-0.575,1.317-0.575c0.622,0,1.046,0.238,1.271,0.715c0.147-0.213,0.34-0.386,0.576-0.518
	c0.237-0.132,0.519-0.197,0.842-0.197c0.975,0,1.47,0.517,1.487,1.549v2.978h-0.761v-2.933c0-0.317-0.073-0.555-0.218-0.713
	c-0.146-0.157-0.39-0.235-0.732-0.235c-0.281,0-0.516,0.084-0.701,0.253c-0.186,0.168-0.295,0.395-0.324,0.68v2.948h-0.765v-2.911
	c0-0.646-0.316-0.97-0.949-0.97c-0.498,0-0.838,0.212-1.022,0.637v3.244h-0.761v-4.443H114.244z M120.92,32.708
	c0-0.131,0.039-0.24,0.117-0.328s0.195-0.131,0.352-0.131c0.155,0,0.274,0.043,0.354,0.131c0.081,0.088,0.121,0.197,0.121,0.328
	c0,0.126-0.04,0.231-0.121,0.316c-0.08,0.085-0.199,0.127-0.354,0.127c-0.156,0-0.273-0.042-0.352-0.127
	S120.92,32.834,120.92,32.708z M124.585,32.076l1.101-3.413h0.775l-1.594,4.443h-0.578l-1.611-4.443h0.776L124.585,32.076z
	 M127.912,28.663l0.023,0.558c0.34-0.427,0.784-0.641,1.331-0.641c0.939,0,1.414,0.529,1.422,1.59v2.937h-0.761v-2.941
	c-0.003-0.32-0.075-0.557-0.219-0.71c-0.145-0.153-0.368-0.229-0.672-0.229c-0.246,0-0.463,0.064-0.648,0.197
	c-0.188,0.131-0.332,0.303-0.437,0.517v3.167h-0.759v-4.443H127.912z"/>
</svg>
