<svg width="29" height="22" viewBox="0 0 29 22" fill="none" xmlns="http://www.w3.org/2000/svg">
<path d="M14.0962 13.3634C15.8856 11.3125 15.6551 8.21534 13.5814 6.44564C11.5077 4.67594 8.37598 4.90388 6.58657 6.95476C4.79716 9.00564 5.02764 12.1028 7.10136 13.8725C9.17508 15.6422 12.3068 15.4143 14.0962 13.3634Z" fill="#FAAF40"/>
<path d="M10.3421 3.92519C9.99697 3.92519 9.71655 3.64786 9.71655 3.30654V0.618643C9.71655 0.277323 9.99697 0 10.3421 0C10.6872 0 10.9677 0.277323 10.9677 0.618643V3.30818C10.9677 3.6495 10.6872 3.92519 10.3421 3.92519Z" fill="#FAAF40"/>
<path d="M3.34504 10.8469H0.625537C0.280413 10.8469 0 10.5696 0 10.2283C0 9.88694 0.280413 9.60962 0.625537 9.60962H3.34504C3.69017 9.60962 3.97058 9.88694 3.97058 10.2283C3.96892 10.5696 3.69017 10.8469 3.34504 10.8469Z" fill="#FAAF40"/>
<path d="M5.39418 5.9533C5.2349 5.9533 5.07395 5.89259 4.95282 5.77279L3.02974 3.86927C2.78582 3.62805 2.78582 3.23586 3.02974 2.99464C3.27365 2.75342 3.67021 2.75342 3.91412 2.99464L5.83721 4.89652C6.08112 5.13774 6.08112 5.52993 5.83721 5.77115C5.71442 5.89258 5.55347 5.9533 5.39418 5.9533Z" fill="#FAAF40"/>
<path d="M3.4711 17.6421C3.31181 17.6421 3.15086 17.5814 3.02974 17.4616C2.78582 17.2204 2.78582 16.8282 3.02974 16.5869L4.95282 14.6851C5.19673 14.4438 5.5933 14.4438 5.83721 14.6851C6.08112 14.9263 6.08112 15.3185 5.83721 15.5597L3.91246 17.4599C3.79134 17.5814 3.63039 17.6421 3.4711 17.6421Z" fill="#FAAF40"/>
<path d="M15.2897 5.95337C15.1304 5.95337 14.9695 5.89265 14.8483 5.77286C14.6044 5.53164 14.6044 5.13945 14.8483 4.89823L16.7713 2.99635C17.0152 2.75512 17.4118 2.75512 17.6557 2.99635C17.8996 3.23757 17.8996 3.62976 17.6557 3.87098L15.731 5.77122C15.6099 5.89265 15.449 5.95337 15.2897 5.95337Z" fill="#FAAF40"/>
<path d="M24.1483 12.0674C24.1466 12.0674 24.1433 12.0674 24.1417 12.0674C24.1433 12.0264 24.1483 11.9854 24.1483 11.9443C24.1483 8.65913 21.4554 5.99585 18.1336 5.99585C14.8118 5.99585 12.1189 8.65913 12.1189 11.9443C12.1189 11.9476 12.1189 11.9525 12.1189 11.9558C9.51229 12.0756 7.43494 14.1974 7.43494 16.8032C7.43494 19.4879 9.63507 21.6621 12.3479 21.6621H24.1483C26.828 21.6621 28.9999 19.5141 28.9999 16.864C28.9999 14.2154 26.828 12.0674 24.1483 12.0674Z" fill="#42BFEC"/>
</svg>
