<?xml version="1.0" encoding="utf-8"?>
<!-- Generator: Adobe Illustrator 16.0.0, SVG Export Plug-In . SVG Version: 6.00 Build 0)  -->
<!DOCTYPE svg PUBLIC "-//W3C//DTD SVG 1.1//EN" "http://www.w3.org/Graphics/SVG/1.1/DTD/svg11.dtd">
<svg version="1.1" id="Layer_1" xmlns="http://www.w3.org/2000/svg" xmlns:xlink="http://www.w3.org/1999/xlink" x="0px" y="0px"
	 width="60px" height="60px" viewBox="0 0 60 60" enable-background="new 0 0 60 60" xml:space="preserve">
<rect fill="#F5EEE5" width="60" height="60"/>
<path fill="#D4B08C" d="M30,45.281c2.498,0,4.969-0.948,7.044-3.229c-0.154-0.451-0.301-0.918-0.439-1.389
	c-1.98,1.951-4.281,2.771-6.605,2.771c-2.327,0-4.63-0.909-6.612-2.939c-0.14,0.462-0.287,0.922-0.439,1.369
	C25.026,44.23,27.499,45.281,30,45.281z"/>
<path fill="#E5C19C" d="M55.666,50.756c0,0-12.208-3.733-16.277-4.977c-0.877-0.269-2.175-3.145-2.795-5.091
	c-1.942,2.297-4.095,4.491-6.593,4.491c-2.501,0-4.656-2.297-6.599-4.68c-0.649,2.042-1.96,5.027-2.773,5.276
	c-4.074,1.246-16.294,4.981-16.294,4.981c-2.546,0.839-4.307,1.941-4.307,4.337V60h59.948v-4.907
	C59.974,52.698,58.154,51.554,55.666,50.756z"/>
<path fill="#F2CEA5" d="M30,10c-6.315,0-12.461,4.103-12.461,9.025c0,0.49,0.006,0.968,0.016,1.44
	c0.202,10.349,2.585,16.7,5.833,20.029c1.982,2.03,4.285,2.939,6.612,2.939c2.324,0,4.625-0.821,6.605-2.771
	c3.259-3.21,5.649-9.485,5.843-20.212c0.008-0.467,0.013-0.941,0.013-1.425C42.461,13.077,36.316,10,30,10z"/>
</svg>
